<svg id="Layer_1" data-name="Layer 1" xmlns="http://www.w3.org/2000/svg" xmlns:xlink="http://www.w3.org/1999/xlink" viewBox="0 0 177.68 61"><defs><style>.cls-1,.cls-3{font-size:38.16px;font-family:AgencyFB-Reg, Agency FB;}.cls-1,.cls-4{fill:#fff;}.cls-2{fill:#4889c8;letter-spacing:0em;}.cls-3{fill:#71c48d;}.cls-5{fill:url(#linear-gradient);}.cls-6{fill:url(#linear-gradient-2);}.cls-7{fill:url(#linear-gradient-3);}.cls-8{fill:url(#linear-gradient-4);}</style><linearGradient id="linear-gradient" x1="83.73" y1="59.65" x2="95.52" y2="39.75" gradientUnits="userSpaceOnUse"><stop offset="0" stop-color="#8bd6f4"/><stop offset="0.3" stop-color="#6dbce5"/><stop offset="0.95" stop-color="#217abf"/><stop offset="1" stop-color="#1b75bc"/></linearGradient><linearGradient id="linear-gradient-2" x1="86.86" y1="54.37" x2="105.38" y2="23.08" xlink:href="#linear-gradient"/><linearGradient id="linear-gradient-3" x1="361.73" y1="471.55" x2="375.5" y2="454.68" gradientTransform="matrix(-1, -0.01, 0.01, -1, 492.81, 486.56)" gradientUnits="userSpaceOnUse"><stop offset="0" stop-color="#69c9cc"/><stop offset="1" stop-color="#76ad91"/></linearGradient><linearGradient id="linear-gradient-4" x1="366.88" y1="455.67" x2="396.3" y2="455.67" gradientTransform="matrix(-1, -0.01, 0.01, -1, 492.81, 486.56)" gradientUnits="userSpaceOnUse"><stop offset="0" stop-color="#6fc496"/><stop offset="0.59" stop-color="#51a87a"/><stop offset="1" stop-color="#3a9364"/></linearGradient></defs><title>whitelogo</title><text class="cls-1" transform="translate(0 47.92)">TRANS<tspan class="cls-2" x="77.25" y="0">A</tspan></text><text class="cls-3" transform="translate(120.47 47.89)">I<tspan class="cls-4" x="7.6" y="0">ONS</tspan></text><path class="cls-5" d="M101.2,62.87H87.47L99.59,41.74,87.47,20.61,99.58,41.69S106.06,54.31,101.2,62.87Z" transform="translate(-3.8 -1.86)"/><path class="cls-6" d="M101.2,62.87c4.86-8.56-1.62-21.18-1.62-21.18L87.47,20.61H101.2l7.46,12.94,4.68,8.15Z" transform="translate(-3.8 -1.86)"/><path class="cls-7" d="M114.18,1.86c-5.65,9.63,1.58,24,1.58,24l13.57,24L115.75,25.82,129.85,2Z" transform="translate(-3.8 -1.86)"/><path class="cls-8" d="M114.18,1.86,100.07,25.69,105.31,35l8.35,14.75,15.67.17-13.57-24S108.53,11.49,114.18,1.86Z" transform="translate(-3.8 -1.86)"/></svg>